<svg width="168" height="30" viewBox="0 0 168 30" fill="none" xmlns="http://www.w3.org/2000/svg">
<g id="Group 266">
<g id="Dashboard">
<path d="M51.232 5.20001C53.536 5.20001 55.456 6.00801 56.992 7.62401C58.544 9.24001 59.32 11.232 59.32 13.6C59.32 15.968 58.544 17.96 56.992 19.576C55.456 21.192 53.536 22 51.232 22H44.56V5.20001H51.232ZM51.232 18.832C52.688 18.832 53.872 18.352 54.784 17.392C55.696 16.416 56.152 15.152 56.152 13.6C56.152 12.048 55.696 10.792 54.784 9.83201C53.872 8.85601 52.688 8.36801 51.232 8.36801H47.872V18.832H51.232Z" fill="white"/>
<path d="M70.8854 10H73.9814V22H70.8854V20.584C69.9574 21.752 68.6534 22.336 66.9734 22.336C65.3734 22.336 63.9974 21.728 62.8454 20.512C61.7094 19.28 61.1414 17.776 61.1414 16C61.1414 14.224 61.7094 12.728 62.8454 11.512C63.9974 10.28 65.3734 9.66401 66.9734 9.66401C68.6534 9.66401 69.9574 10.248 70.8854 11.416V10ZM65.1734 18.448C65.7974 19.072 66.5894 19.384 67.5494 19.384C68.5094 19.384 69.3014 19.072 69.9254 18.448C70.5654 17.808 70.8854 16.992 70.8854 16C70.8854 15.008 70.5654 14.2 69.9254 13.576C69.3014 12.936 68.5094 12.616 67.5494 12.616C66.5894 12.616 65.7974 12.936 65.1734 13.576C64.5494 14.2 64.2374 15.008 64.2374 16C64.2374 16.992 64.5494 17.808 65.1734 18.448Z" fill="white"/>
<path d="M79.7911 13.408C79.7911 13.728 79.9991 13.992 80.4151 14.2C80.8471 14.392 81.3671 14.568 81.9751 14.728C82.5831 14.872 83.1911 15.064 83.7991 15.304C84.4071 15.528 84.9191 15.912 85.3351 16.456C85.7671 17 85.9831 17.68 85.9831 18.496C85.9831 19.728 85.5191 20.68 84.5911 21.352C83.6791 22.008 82.5351 22.336 81.1591 22.336C78.6951 22.336 77.0151 21.384 76.1191 19.48L78.8071 17.968C79.1591 19.008 79.9431 19.528 81.1591 19.528C82.2631 19.528 82.8151 19.184 82.8151 18.496C82.8151 18.176 82.5991 17.92 82.1671 17.728C81.7511 17.52 81.2391 17.336 80.6311 17.176C80.0231 17.016 79.4151 16.816 78.8071 16.576C78.1991 16.336 77.6791 15.96 77.2471 15.448C76.8311 14.92 76.6231 14.264 76.6231 13.48C76.6231 12.296 77.0551 11.368 77.9191 10.696C78.7991 10.008 79.8871 9.66401 81.1831 9.66401C82.1591 9.66401 83.0471 9.88801 83.8471 10.336C84.6471 10.768 85.2791 11.392 85.7431 12.208L83.1031 13.648C82.7191 12.832 82.0791 12.424 81.1831 12.424C80.7831 12.424 80.4471 12.512 80.1751 12.688C79.9191 12.864 79.7911 13.104 79.7911 13.408Z" fill="white"/>
<path d="M94.8861 9.66401C96.1981 9.66401 97.2781 10.104 98.1261 10.984C98.9901 11.864 99.4221 13.08 99.4221 14.632V22H96.3261V15.016C96.3261 14.216 96.1101 13.608 95.6781 13.192C95.2461 12.76 94.6701 12.544 93.9501 12.544C93.1501 12.544 92.5101 12.792 92.0301 13.288C91.5501 13.784 91.3101 14.528 91.3101 15.52V22H88.2141V5.20001H91.3101V11.344C92.0621 10.224 93.2541 9.66401 94.8861 9.66401Z" fill="white"/>
<path d="M109.29 9.66401C110.906 9.66401 112.282 10.28 113.418 11.512C114.57 12.728 115.146 14.224 115.146 16C115.146 17.776 114.57 19.28 113.418 20.512C112.282 21.728 110.906 22.336 109.29 22.336C107.61 22.336 106.314 21.752 105.402 20.584V22H102.306V5.20001H105.402V11.416C106.314 10.248 107.61 9.66401 109.29 9.66401ZM106.338 18.448C106.962 19.072 107.754 19.384 108.714 19.384C109.674 19.384 110.466 19.072 111.09 18.448C111.73 17.808 112.05 16.992 112.05 16C112.05 15.008 111.73 14.2 111.09 13.576C110.466 12.936 109.674 12.616 108.714 12.616C107.754 12.616 106.962 12.936 106.338 13.576C105.714 14.2 105.402 15.008 105.402 16C105.402 16.992 105.714 17.808 106.338 18.448Z" fill="white"/>
<path d="M127.793 20.512C126.561 21.728 125.057 22.336 123.281 22.336C121.505 22.336 120.001 21.728 118.769 20.512C117.553 19.28 116.945 17.776 116.945 16C116.945 14.224 117.553 12.728 118.769 11.512C120.001 10.28 121.505 9.66401 123.281 9.66401C125.057 9.66401 126.561 10.28 127.793 11.512C129.025 12.728 129.641 14.224 129.641 16C129.641 17.776 129.025 19.28 127.793 20.512ZM120.953 18.376C121.577 19 122.353 19.312 123.281 19.312C124.209 19.312 124.985 19 125.609 18.376C126.233 17.752 126.545 16.96 126.545 16C126.545 15.04 126.233 14.248 125.609 13.624C124.985 13 124.209 12.688 123.281 12.688C122.353 12.688 121.577 13 120.953 13.624C120.345 14.248 120.041 15.04 120.041 16C120.041 16.96 120.345 17.752 120.953 18.376Z" fill="white"/>
<path d="M141.179 10H144.275V22H141.179V20.584C140.251 21.752 138.947 22.336 137.267 22.336C135.667 22.336 134.291 21.728 133.139 20.512C132.003 19.28 131.435 17.776 131.435 16C131.435 14.224 132.003 12.728 133.139 11.512C134.291 10.28 135.667 9.66401 137.267 9.66401C138.947 9.66401 140.251 10.248 141.179 11.416V10ZM135.467 18.448C136.091 19.072 136.883 19.384 137.843 19.384C138.803 19.384 139.595 19.072 140.219 18.448C140.859 17.808 141.179 16.992 141.179 16C141.179 15.008 140.859 14.2 140.219 13.576C139.595 12.936 138.803 12.616 137.843 12.616C136.883 12.616 136.091 12.936 135.467 13.576C134.843 14.2 134.531 15.008 134.531 16C134.531 16.992 134.843 17.808 135.467 18.448Z" fill="white"/>
<path d="M150.419 12.064C150.707 11.296 151.179 10.72 151.835 10.336C152.507 9.95201 153.251 9.76001 154.067 9.76001V13.216C153.123 13.104 152.275 13.296 151.523 13.792C150.787 14.288 150.419 15.112 150.419 16.264V22H147.323V10H150.419V12.064Z" fill="white"/>
<path d="M164.768 5.20001H167.864V22H164.768V20.584C163.856 21.752 162.56 22.336 160.88 22.336C159.264 22.336 157.88 21.728 156.728 20.512C155.592 19.28 155.024 17.776 155.024 16C155.024 14.224 155.592 12.728 156.728 11.512C157.88 10.28 159.264 9.66401 160.88 9.66401C162.56 9.66401 163.856 10.248 164.768 11.416V5.20001ZM159.056 18.448C159.696 19.072 160.496 19.384 161.456 19.384C162.416 19.384 163.208 19.072 163.832 18.448C164.456 17.808 164.768 16.992 164.768 16C164.768 15.008 164.456 14.2 163.832 13.576C163.208 12.936 162.416 12.616 161.456 12.616C160.496 12.616 159.696 12.936 159.056 13.576C158.432 14.2 158.12 15.008 158.12 16C158.12 16.992 158.432 17.808 159.056 18.448Z" fill="white"/>
</g>
<g id="icon">
<circle id="Ellipse 5" cx="15" cy="14" r="11" stroke="white" stroke-width="4"/>
<circle id="Ellipse 6" cx="23" cy="6" r="6" fill="white"/>
<circle id="Ellipse 7" cx="6" cy="6" r="6" fill="white"/>
<circle id="Ellipse 8" cx="15" cy="24" r="6" fill="white"/>
</g>
</g>
</svg>
