<svg width="137" height="45" viewBox="0 0 137 45" fill="none" xmlns="http://www.w3.org/2000/svg">
<mask id="mask0_501_82" style="mask-type:alpha" maskUnits="userSpaceOnUse" x="2" y="8" width="134" height="28">
<path d="M8.388 21.14H20.484V25.82H8.388V21.14ZM8.82 35H2.988V9.8H22.032V14.48H8.82V35ZM34.7392 35.288C32.5312 35.288 30.5872 34.856 28.9072 33.992C27.2512 33.128 25.9672 31.952 25.0552 30.464C24.1432 28.952 23.6872 27.236 23.6872 25.316C23.6872 23.372 24.1312 21.656 25.0192 20.168C25.9312 18.656 27.1672 17.48 28.7272 16.64C30.2872 15.776 32.0512 15.344 34.0192 15.344C35.9152 15.344 37.6192 15.752 39.1312 16.568C40.6672 17.36 41.8792 18.512 42.7672 20.024C43.6552 21.512 44.0992 23.3 44.0992 25.388C44.0992 25.604 44.0872 25.856 44.0632 26.144C44.0392 26.408 44.0152 26.66 43.9912 26.9H28.2592V23.624H41.0392L38.8792 24.596C38.8792 23.588 38.6752 22.712 38.2672 21.968C37.8592 21.224 37.2952 20.648 36.5752 20.24C35.8552 19.808 35.0152 19.592 34.0552 19.592C33.0952 19.592 32.2432 19.808 31.4992 20.24C30.7792 20.648 30.2152 21.236 29.8072 22.004C29.3992 22.748 29.1952 23.636 29.1952 24.668V25.532C29.1952 26.588 29.4232 27.524 29.8792 28.34C30.3592 29.132 31.0192 29.744 31.8592 30.176C32.7232 30.584 33.7312 30.788 34.8832 30.788C35.9152 30.788 36.8152 30.632 37.5832 30.32C38.3752 30.008 39.0952 29.54 39.7432 28.916L42.7312 32.156C41.8432 33.164 40.7272 33.944 39.3832 34.496C38.0392 35.024 36.4912 35.288 34.7392 35.288ZM57.4501 35.288C55.2421 35.288 53.2981 34.856 51.6181 33.992C49.9621 33.128 48.6781 31.952 47.7661 30.464C46.8541 28.952 46.3981 27.236 46.3981 25.316C46.3981 23.372 46.8421 21.656 47.7301 20.168C48.6421 18.656 49.8781 17.48 51.4381 16.64C52.9981 15.776 54.7621 15.344 56.7301 15.344C58.6261 15.344 60.3301 15.752 61.8421 16.568C63.3781 17.36 64.5901 18.512 65.4781 20.024C66.3661 21.512 66.8101 23.3 66.8101 25.388C66.8101 25.604 66.7981 25.856 66.7741 26.144C66.7501 26.408 66.7261 26.66 66.7021 26.9H50.9701V23.624H63.7501L61.5901 24.596C61.5901 23.588 61.3861 22.712 60.9781 21.968C60.5701 21.224 60.0061 20.648 59.2861 20.24C58.5661 19.808 57.7261 19.592 56.7661 19.592C55.8061 19.592 54.9541 19.808 54.2101 20.24C53.4901 20.648 52.9261 21.236 52.5181 22.004C52.1101 22.748 51.9061 23.636 51.9061 24.668V25.532C51.9061 26.588 52.1341 27.524 52.5901 28.34C53.0701 29.132 53.7301 29.744 54.5701 30.176C55.4341 30.584 56.4421 30.788 57.5941 30.788C58.6261 30.788 59.5261 30.632 60.2941 30.32C61.0861 30.008 61.8061 29.54 62.4541 28.916L65.4421 32.156C64.5541 33.164 63.4381 33.944 62.0941 34.496C60.7501 35.024 59.2021 35.288 57.4501 35.288ZM81.997 35.288C80.293 35.288 78.829 34.928 77.605 34.208C76.381 33.488 75.445 32.396 74.797 30.932C74.149 29.444 73.825 27.572 73.825 25.316C73.825 23.036 74.161 21.164 74.833 19.7C75.529 18.236 76.489 17.144 77.713 16.424C78.937 15.704 80.365 15.344 81.997 15.344C83.821 15.344 85.453 15.752 86.893 16.568C88.357 17.384 89.509 18.536 90.349 20.024C91.213 21.512 91.645 23.276 91.645 25.316C91.645 27.332 91.213 29.084 90.349 30.572C89.509 32.06 88.357 33.224 86.893 34.064C85.453 34.88 83.821 35.288 81.997 35.288ZM70.549 35V8.288H76.165V19.556L75.805 25.28L75.913 31.04V35H70.549ZM81.025 30.68C81.961 30.68 82.789 30.464 83.509 30.032C84.253 29.6 84.841 28.988 85.273 28.196C85.729 27.38 85.957 26.42 85.957 25.316C85.957 24.188 85.729 23.228 85.273 22.436C84.841 21.644 84.253 21.032 83.509 20.6C82.789 20.168 81.961 19.952 81.025 19.952C80.089 19.952 79.249 20.168 78.505 20.6C77.761 21.032 77.173 21.644 76.741 22.436C76.309 23.228 76.093 24.188 76.093 25.316C76.093 26.42 76.309 27.38 76.741 28.196C77.173 28.988 77.761 29.6 78.505 30.032C79.249 30.464 80.089 30.68 81.025 30.68ZM106.968 35V31.22L106.608 30.392V23.624C106.608 22.424 106.236 21.488 105.492 20.816C104.772 20.144 103.656 19.808 102.144 19.808C101.112 19.808 100.092 19.976 99.0841 20.312C98.1001 20.624 97.2601 21.056 96.5641 21.608L94.5481 17.684C95.6041 16.94 96.8761 16.364 98.3641 15.956C99.8521 15.548 101.364 15.344 102.9 15.344C105.852 15.344 108.144 16.04 109.776 17.432C111.408 18.824 112.224 20.996 112.224 23.948V35H106.968ZM101.064 35.288C99.5521 35.288 98.2561 35.036 97.1761 34.532C96.0961 34.004 95.2681 33.296 94.6921 32.408C94.1161 31.52 93.8281 30.524 93.8281 29.42C93.8281 28.268 94.1041 27.26 94.6561 26.396C95.2321 25.532 96.1321 24.86 97.3561 24.38C98.5801 23.876 100.176 23.624 102.144 23.624H107.292V26.9H102.756C101.436 26.9 100.524 27.116 100.02 27.548C99.5401 27.98 99.3001 28.52 99.3001 29.168C99.3001 29.888 99.5761 30.464 100.128 30.896C100.704 31.304 101.484 31.508 102.468 31.508C103.404 31.508 104.244 31.292 104.988 30.86C105.732 30.404 106.272 29.744 106.608 28.88L107.472 31.472C107.064 32.72 106.32 33.668 105.24 34.316C104.16 34.964 102.768 35.288 101.064 35.288ZM126.807 35.288C124.719 35.288 122.859 34.868 121.227 34.028C119.595 33.164 118.311 31.976 117.375 30.464C116.463 28.952 116.007 27.236 116.007 25.316C116.007 23.372 116.463 21.656 117.375 20.168C118.311 18.656 119.595 17.48 121.227 16.64C122.859 15.776 124.719 15.344 126.807 15.344C128.847 15.344 130.623 15.776 132.135 16.64C133.647 17.48 134.763 18.692 135.483 20.276L131.127 22.616C130.623 21.704 129.987 21.032 129.219 20.6C128.475 20.168 127.659 19.952 126.771 19.952C125.811 19.952 124.947 20.168 124.179 20.6C123.411 21.032 122.799 21.644 122.343 22.436C121.911 23.228 121.695 24.188 121.695 25.316C121.695 26.444 121.911 27.404 122.343 28.196C122.799 28.988 123.411 29.6 124.179 30.032C124.947 30.464 125.811 30.68 126.771 30.68C127.659 30.68 128.475 30.476 129.219 30.068C129.987 29.636 130.623 28.952 131.127 28.016L135.483 30.392C134.763 31.952 133.647 33.164 132.135 34.028C130.623 34.868 128.847 35.288 126.807 35.288Z" fill="white"/>
</mask>
<g mask="url(#mask0_501_82)">
<path d="M-24 -35C-24 -54.8822 -7.88225 -71 12 -71H125C144.882 -71 161 -54.8823 161 -35V78C161 97.8822 144.882 114 125 114H12C-7.88225 114 -24 97.8822 -24 78V-35Z" fill="url(#paint0_linear_501_82)"/>
</g>
<defs>
<linearGradient id="paint0_linear_501_82" x1="198.5" y1="165.5" x2="-49.9002" y2="32.3622" gradientUnits="userSpaceOnUse">
<stop stop-color="#E2AB81"/>
<stop offset="0.244792" stop-color="#DA7061"/>
<stop offset="0.484375" stop-color="#CE5057"/>
<stop offset="0.71875" stop-color="#8F4285"/>
<stop offset="1" stop-color="#322FC9"/>
</linearGradient>
</defs>
</svg>
