<svg width="28" height="28" viewBox="0 0 28 28" fill="none" xmlns="http://www.w3.org/2000/svg">
<g id="codicon:debug-rerun" clip-path="url(#clip0_3735_206)">
<g id="Group">
<path id="Vector" fill-rule="evenodd" clip-rule="evenodd" d="M12.5422 21C12.5428 22.2028 12.1303 23.3693 11.3738 24.3044C10.6173 25.2395 9.56267 25.8865 8.38629 26.1371C7.20991 26.3878 5.98313 26.2269 4.91116 25.6814C3.83919 25.1359 2.98704 24.2388 2.49725 23.1403L0.87325 23.7983C1.48633 25.2055 2.54487 26.3723 3.88598 27.1191C5.22708 27.8658 6.77643 28.1512 8.29558 27.9312C9.81474 27.7113 11.2195 26.9982 12.2938 25.9017C13.368 24.8053 14.0521 23.3862 14.2409 21.8628C14.4297 20.3395 14.1126 18.7963 13.3385 17.4708C12.5644 16.1453 11.3762 15.1109 9.95664 14.5267C8.53712 13.9426 6.96499 13.8412 5.48217 14.238C3.99935 14.6349 2.68803 15.508 1.75 16.723V14.5828H0V19.25L0.875 20.125H4.95775V18.375H2.744C3.32149 17.3733 4.2135 16.5903 5.28157 16.1475C6.34963 15.7047 7.534 15.6268 8.65084 15.926C9.76768 16.2253 10.7545 16.8848 11.4581 17.8022C12.1618 18.7197 12.5429 19.8438 12.5422 21Z" fill="black"/>
<path id="Vector_2" fill-rule="evenodd" clip-rule="evenodd" d="M8.75 4.2175L10.115 3.5L25.865 14V15.4525L17.5 21.0298V18.9298L23.8 14.735L10.5 5.8625V12.25H8.75V4.2175Z" fill="black"/>
</g>
</g>
<defs>
<clipPath id="clip0_3735_206">
<rect width="28" height="28" fill="white"/>
</clipPath>
</defs>
</svg>
